<svg width="116" height="103" viewBox="0 0 116 103" fill="none" xmlns="http://www.w3.org/2000/svg">
<path d="M102.375 14.0625H86.9991L79.4387 2.72469C79.0336 2.11759 78.4851 1.61977 77.8417 1.27532C77.1983 0.930874 76.4798 0.750438 75.75 0.75H40.25C39.5202 0.750438 38.8017 0.930874 38.1583 1.27532C37.5149 1.61977 36.9664 2.11759 36.5613 2.72469L28.9954 14.0625H13.625C10.0943 14.0625 6.70822 15.4651 4.21164 17.9616C1.71506 20.4582 0.3125 23.8443 0.3125 27.375V89.5C0.3125 93.0307 1.71506 96.4168 4.21164 98.9134C6.70822 101.41 10.0943 102.812 13.625 102.812H102.375C105.906 102.812 109.292 101.41 111.788 98.9134C114.285 96.4168 115.688 93.0307 115.688 89.5V27.375C115.688 23.8443 114.285 20.4582 111.788 17.9616C109.292 15.4651 105.906 14.0625 102.375 14.0625ZM106.812 89.5C106.812 90.6769 106.345 91.8056 105.513 92.6378C104.681 93.47 103.552 93.9375 102.375 93.9375H13.625C12.4481 93.9375 11.3194 93.47 10.4872 92.6378C9.65502 91.8056 9.1875 90.6769 9.1875 89.5V27.375C9.1875 26.1981 9.65502 25.0694 10.4872 24.2372C11.3194 23.405 12.4481 22.9375 13.625 22.9375H31.375C32.1058 22.938 32.8253 22.758 33.4698 22.4135C34.1142 22.069 34.6637 21.5707 35.0692 20.9628L42.6241 9.625H73.3704L80.9308 20.9628C81.3363 21.5707 81.8858 22.069 82.5302 22.4135C83.1747 22.758 83.8942 22.938 84.625 22.9375H102.375C103.552 22.9375 104.681 23.405 105.513 24.2372C106.345 25.0694 106.812 26.1981 106.812 27.375V89.5ZM58 31.8125C53.1729 31.8125 48.4542 33.2439 44.4406 35.9257C40.427 38.6075 37.2988 42.4192 35.4516 46.8789C33.6043 51.3385 33.121 56.2458 34.0627 60.9802C35.0044 65.7145 37.3289 70.0633 40.7422 73.4766C44.1554 76.8899 48.5042 79.2143 53.2386 80.156C57.9729 81.0978 62.8802 80.6144 67.3399 78.7672C71.7995 76.9199 75.6113 73.7917 78.2931 69.7781C80.9748 65.7645 82.4062 61.0458 82.4062 56.2188C82.3989 49.7481 79.8252 43.5445 75.2497 38.969C70.6742 34.3936 64.4707 31.8198 58 31.8125ZM58 71.75C54.9282 71.75 51.9254 70.8391 49.3713 69.1325C46.8172 67.4259 44.8265 65.0003 43.651 62.1623C42.4755 59.3243 42.1679 56.2015 42.7672 53.1888C43.3665 50.176 44.8457 47.4086 47.0177 45.2365C49.1898 43.0644 51.9572 41.5852 54.97 40.9859C57.9828 40.3867 61.1056 40.6942 63.9436 41.8697C66.7815 43.0453 69.2072 45.0359 70.9138 47.59C72.6204 50.1441 73.5312 53.147 73.5312 56.2188C73.5312 60.3379 71.8949 64.2883 68.9823 67.201C66.0696 70.1137 62.1191 71.75 58 71.75Z" fill="#E7D8C5"/>
</svg>
