<svg width="65" height="65" viewBox="0 0 65 65" fill="none" xmlns="http://www.w3.org/2000/svg">
<path d="M51.1723 13.8278C46.2201 8.87562 39.5035 6.09351 32.5001 6.09351C25.4966 6.09351 18.78 8.87562 13.8278 13.8278C8.87562 18.78 6.09351 25.4966 6.09351 32.5001C6.09351 39.5035 8.87562 46.2201 13.8278 51.1723C18.78 56.1245 25.4966 58.9067 32.5001 58.9067C39.5035 58.9067 46.2201 56.1245 51.1723 51.1723C56.1245 46.2201 58.9067 39.5035 58.9067 32.5001C58.9067 25.4966 56.1245 18.78 51.1723 13.8278ZM48.3007 16.702C49.3422 17.7481 50.2777 18.8945 51.0936 20.1247L42.5421 30.2149L35.453 10.3544C40.32 10.9901 44.8386 13.2226 48.3007 16.702ZM39.5053 33.7696L34.8944 39.1956L27.8891 37.9261L25.4948 31.2305L30.1057 25.8046L37.111 27.0741L39.5053 33.7696ZM16.6995 16.702C20.5357 12.845 25.6558 10.5326 31.0858 10.2046L35.5317 22.646L14.8028 18.8704C15.3877 18.1076 16.0213 17.3833 16.6995 16.702ZM11.8448 41.0161C10.6394 38.0726 10.0734 34.9065 10.1841 31.7277C10.2949 28.5489 11.0799 25.4299 12.4872 22.5774L25.4897 24.9514L11.8448 41.0161ZM16.6995 48.2981C15.6579 47.2521 14.7224 46.1056 13.9065 44.8755L22.4581 34.7852L29.5471 54.6356C24.6814 54.0026 20.163 51.7738 16.6995 48.2981ZM48.3007 48.2981C44.4645 52.1552 39.3444 54.4676 33.9143 54.7956L29.4684 42.3542L50.1973 46.1399C49.6121 46.8993 48.9785 47.6202 48.3007 48.2981ZM39.5104 40.0487L53.1554 23.9841C54.3607 26.9276 54.9268 30.0936 54.816 33.2724C54.7053 36.4513 53.9203 39.5703 52.513 42.4227L39.5104 40.0487Z" fill="#E7D8C5"/>
</svg>
