<svg width="213" height="191" viewBox="0 0 213 191" fill="none" xmlns="http://www.w3.org/2000/svg">
<g filter="url(#filter0_d_190_11)">
<path d="M6.48647 99.4291C6.48647 73.1193 16.9205 47.887 35.4931 29.2832C54.0657 10.6793 79.2556 0.227798 105.521 0.227798C131.787 0.227798 156.977 10.6793 175.549 29.2832C194.122 47.887 204.556 73.1193 204.556 99.4291C204.556 138.537 181.883 174.173 146.792 190.303C145.883 190.722 144.9 190.956 143.901 190.994C142.901 191.033 141.903 190.873 140.965 190.525C140.027 190.177 139.167 189.647 138.433 188.966C137.699 188.285 137.106 187.465 136.689 186.555C136.271 185.644 136.036 184.66 135.998 183.658C135.96 182.657 136.12 181.658 136.467 180.718C136.815 179.778 137.344 178.916 138.024 178.181C138.704 177.446 139.522 176.852 140.431 176.434C170.132 162.775 189.32 132.557 189.32 99.4291C189.32 77.1669 180.491 55.8166 164.776 40.0749C149.061 24.3331 127.746 15.4895 105.521 15.4895C83.2964 15.4895 61.9819 24.3331 46.2666 40.0749C30.5513 55.8166 21.7226 77.1669 21.7226 99.4291C21.7226 132.557 40.9106 162.775 70.6115 176.434C72.4475 177.279 73.8733 178.82 74.5751 180.718C75.277 182.616 75.1974 184.715 74.3539 186.555C73.5103 188.394 71.972 189.822 70.0772 190.525C68.1824 191.228 66.0865 191.148 64.2504 190.303C29.1597 174.173 6.48647 138.537 6.48647 99.4291Z" fill="#503047"/>
</g>
<circle cx="20" cy="66" r="20" fill="#904D7A"/>
<defs>
<filter id="filter0_d_190_11" x="6.48645" y="0.227783" width="206.07" height="198.772" filterUnits="userSpaceOnUse" color-interpolation-filters="sRGB">
<feFlood flood-opacity="0" result="BackgroundImageFix"/>
<feColorMatrix in="SourceAlpha" type="matrix" values="0 0 0 0 0 0 0 0 0 0 0 0 0 0 0 0 0 0 127 0" result="hardAlpha"/>
<feOffset dx="4" dy="4"/>
<feGaussianBlur stdDeviation="2"/>
<feComposite in2="hardAlpha" operator="out"/>
<feColorMatrix type="matrix" values="0 0 0 0 0 0 0 0 0 0 0 0 0 0 0 0 0 0 0.25 0"/>
<feBlend mode="normal" in2="BackgroundImageFix" result="effect1_dropShadow_190_11"/>
<feBlend mode="normal" in="SourceGraphic" in2="effect1_dropShadow_190_11" result="shape"/>
</filter>
</defs>
</svg>
