<svg width="25" height="23" viewBox="0 0 25 23" fill="none" xmlns="http://www.w3.org/2000/svg">
<path d="M10.7143 6.81482C10.7143 6.47785 10.819 6.14846 11.0152 5.86829C11.2114 5.58812 11.4903 5.36975 11.8166 5.2408C12.1429 5.11185 12.502 5.07811 12.8484 5.14385C13.1948 5.20959 13.513 5.37185 13.7627 5.61011C14.0124 5.84838 14.1825 6.15195 14.2514 6.48244C14.3203 6.81293 14.2849 7.15548 14.1498 7.46679C14.0146 7.77811 13.7857 8.04419 13.4921 8.23139C13.1984 8.4186 12.8532 8.51852 12.5 8.51852C12.0264 8.51852 11.5722 8.33902 11.2373 8.01952C10.9024 7.70001 10.7143 7.26667 10.7143 6.81482ZM5.35714 6.81482C5.35714 5.00741 6.10969 3.27404 7.44924 1.99601C8.78878 0.717987 10.6056 0 12.5 0C14.3944 0 16.2112 0.717987 17.5508 1.99601C18.8903 3.27404 19.6429 5.00741 19.6429 6.81482C19.6429 13.1984 13.2165 16.7751 12.9464 16.9252C12.8115 16.9988 12.6588 17.0375 12.5033 17.0375C12.3479 17.0375 12.1952 16.9988 12.0603 16.9252C11.7835 16.7751 5.35714 13.2037 5.35714 6.81482ZM7.14286 6.81482C7.14286 11.3083 11.1429 14.2909 12.5 15.1736C13.856 14.2919 17.8571 11.3083 17.8571 6.81482C17.8571 5.45926 17.2927 4.15923 16.2881 3.20071C15.2834 2.24219 13.9208 1.7037 12.5 1.7037C11.0792 1.7037 9.71659 2.24219 8.71193 3.20071C7.70727 4.15923 7.14286 5.45926 7.14286 6.81482ZM20.8449 14.0162C20.6251 13.9469 20.3858 13.9617 20.1773 14.0576C19.9688 14.1534 19.8074 14.3228 19.7272 14.5299C19.647 14.737 19.6543 14.9658 19.7474 15.1679C19.8406 15.37 20.0124 15.5297 20.2266 15.6134C22.0692 16.264 23.2143 17.135 23.2143 17.8889C23.2143 19.3115 19.1384 21.2963 12.5 21.2963C5.86161 21.2963 1.78571 19.3115 1.78571 17.8889C1.78571 17.135 2.9308 16.264 4.77344 15.6144C4.98762 15.5308 5.1594 15.3711 5.25255 15.1689C5.34571 14.9668 5.35296 14.7381 5.27277 14.5309C5.19259 14.3238 5.03124 14.1545 4.82274 14.0586C4.61424 13.9628 4.37489 13.948 4.15513 14.0172C1.47545 14.9596 0 16.3353 0 17.8889C0 21.209 6.44085 23 12.5 23C18.5592 23 25 21.209 25 17.8889C25 16.3353 23.5246 14.9596 20.8449 14.0162Z" fill="#904D7A"/>
</svg>
