<svg width="253" height="212" viewBox="0 0 253 212" fill="none" xmlns="http://www.w3.org/2000/svg">
<path d="M133.158 18L72.3322 66.8889L32.3046 88.3248L17 131.949L95.8778 149.248L64.0912 162.41L95.8778 194L145.324 162.41H197.909L231.265 131.949L162.198 66.8889L245 88.3248L215.96 40.5641L133.158 18Z" stroke="#C9A1AD" stroke-width="7"/>
<rect y="128.847" width="19" height="19" rx="5" fill="#503047"/>
<path d="M7.7845 143.847V143.687L8.7445 143.479V133.495H7.5285V133.319L10.4245 132.263H10.5845V143.479L11.4805 143.687V143.847H7.7845Z" fill="#E7D8C5"/>
<rect x="14.9172" y="71.8894" width="19" height="19" rx="5" fill="#503047"/>
<path d="M21.0381 87.1294C20.8034 87.1294 20.5954 87.0334 20.4141 86.8414C20.2328 86.6494 20.1421 86.3507 20.1421 85.9454C20.1421 85.3907 20.2541 84.8947 20.4781 84.4574C20.7021 84.0201 21.0061 83.6254 21.3901 83.2734C21.6568 83.0281 21.9981 82.7667 22.4141 82.4894C22.8301 82.2121 23.3314 81.9187 23.9181 81.6094C24.6008 81.2574 25.1501 80.9001 25.5661 80.5374C25.9821 80.1641 26.2861 79.7694 26.4781 79.3534C26.6701 78.9374 26.7661 78.4681 26.7661 77.9454C26.7661 77.4654 26.6328 77.0547 26.3661 76.7134C26.1101 76.3721 25.7528 76.1161 25.2941 75.9454C24.8461 75.7641 24.3288 75.6734 23.7421 75.6734C23.2408 75.6734 22.8141 75.7374 22.4621 75.8654C22.1101 75.9934 21.8381 76.1427 21.6461 76.3134C21.4541 76.4734 21.3581 76.6067 21.3581 76.7134C21.3581 76.7774 21.4168 76.8574 21.5341 76.9534C21.6514 77.0387 21.8541 77.1667 22.1421 77.3374C22.4301 77.4867 22.6381 77.6467 22.7661 77.8174C22.9048 77.9774 22.9741 78.1641 22.9741 78.3774C22.9741 78.6121 22.8994 78.8094 22.7501 78.9694C22.6114 79.1187 22.4354 79.2307 22.2221 79.3054C22.0194 79.3694 21.8008 79.4014 21.5661 79.4014C21.3421 79.4014 21.1181 79.3641 20.8941 79.2894C20.6701 79.2147 20.4834 79.0974 20.3341 78.9374C20.1954 78.7667 20.1261 78.5374 20.1261 78.2494C20.1261 77.9187 20.2114 77.5881 20.3821 77.2574C20.5634 76.9161 20.8354 76.6014 21.1981 76.3134C21.5608 76.0147 22.0194 75.7747 22.5741 75.5934C23.1394 75.4121 23.7954 75.3214 24.5421 75.3214C25.8434 75.3214 26.8514 75.5721 27.5661 76.0734C28.2808 76.5747 28.6381 77.2681 28.6381 78.1534C28.6381 78.7401 28.5048 79.2681 28.2381 79.7374C27.9821 80.1961 27.5821 80.6227 27.0381 81.0174C26.4941 81.4014 25.7901 81.7694 24.9261 82.1214C23.9768 82.4947 23.1874 82.8467 22.5581 83.1774C21.9394 83.5081 21.4594 83.8334 21.1181 84.1534C20.7874 84.4627 20.5741 84.7881 20.4781 85.1294L20.6861 85.2254C20.8354 85.0974 21.0168 84.9961 21.2301 84.9214C21.4434 84.8467 21.6781 84.7934 21.9341 84.7614C22.2008 84.7294 22.4728 84.7187 22.7501 84.7294C23.0381 84.7294 23.3208 84.7454 23.5981 84.7774C23.9821 84.8414 24.3554 84.9267 24.7181 85.0334C25.0808 85.1401 25.4221 85.2521 25.7421 85.3694C26.0621 85.4867 26.3448 85.5827 26.5901 85.6574C26.8461 85.7321 27.0488 85.7694 27.1981 85.7694C27.7101 85.7694 28.0888 85.5667 28.3341 85.1614C28.5901 84.7561 28.7181 84.1107 28.7181 83.2254H28.8781C28.8781 83.9507 28.8141 84.5641 28.6861 85.0654C28.5688 85.5561 28.3928 85.9561 28.1581 86.2654C27.9234 86.5641 27.6354 86.7827 27.2941 86.9214C26.9528 87.0601 26.5581 87.1294 26.1101 87.1294C25.8434 87.1294 25.5341 87.0921 25.1821 87.0174C24.8301 86.9427 24.4514 86.8361 24.0461 86.6974C23.6408 86.5587 23.2194 86.4094 22.7821 86.2494C22.3874 86.1001 22.0301 85.9667 21.7101 85.8494C21.4008 85.7321 21.1448 85.6414 20.9421 85.5774C20.7394 85.5027 20.6008 85.4654 20.5261 85.4654C20.4408 85.4654 20.3981 85.4921 20.3981 85.5454C20.3981 85.6201 20.4461 85.6894 20.5421 85.7534C20.6381 85.8174 20.7661 85.8921 20.9261 85.9774C21.1501 86.0841 21.3208 86.1907 21.4381 86.2974C21.5661 86.3934 21.6301 86.5161 21.6301 86.6654C21.6301 86.7934 21.5768 86.9001 21.4701 86.9854C21.3741 87.0814 21.2301 87.1294 21.0381 87.1294Z" fill="#E7D8C5"/>
<rect x="122.135" width="19" height="19" rx="5" fill="#503047"/>
<path d="M131.485 15.24C130.77 15.24 130.157 15.16 129.645 15C129.133 14.8293 128.717 14.616 128.397 14.36C128.077 14.0933 127.842 13.8053 127.693 13.496C127.544 13.1867 127.469 12.888 127.469 12.6C127.469 12.3227 127.528 12.0827 127.645 11.88C127.773 11.6667 127.944 11.5067 128.157 11.4C128.381 11.2827 128.632 11.224 128.909 11.224C129.197 11.224 129.437 11.2773 129.629 11.384C129.821 11.48 129.965 11.6133 130.061 11.784C130.168 11.944 130.221 12.12 130.221 12.312C130.221 12.5253 130.162 12.696 130.045 12.824C129.938 12.952 129.8 13.064 129.629 13.16C129.469 13.2453 129.304 13.3253 129.133 13.4C128.962 13.4747 128.818 13.5493 128.701 13.624C128.594 13.688 128.541 13.768 128.541 13.864C128.541 13.9493 128.594 14.056 128.701 14.184C128.808 14.312 128.962 14.44 129.165 14.568C129.368 14.6853 129.608 14.7867 129.885 14.872C130.173 14.9573 130.498 15 130.861 15C131.448 15 131.965 14.8773 132.413 14.632C132.861 14.3867 133.208 14.056 133.453 13.64C133.698 13.2133 133.821 12.7333 133.821 12.2C133.821 11.592 133.73 11.0907 133.549 10.696C133.368 10.2907 133.085 9.98667 132.701 9.784C132.328 9.58133 131.848 9.48 131.261 9.48H130.477V9.24C131.224 9.24 131.832 9.112 132.301 8.856C132.781 8.6 133.138 8.248 133.373 7.8C133.608 7.352 133.725 6.83467 133.725 6.248C133.725 5.75733 133.602 5.32 133.357 4.936C133.122 4.54133 132.792 4.232 132.365 4.008C131.949 3.784 131.464 3.672 130.909 3.672C130.546 3.672 130.216 3.71467 129.917 3.8C129.618 3.87467 129.368 3.976 129.165 4.104C128.962 4.22133 128.802 4.344 128.685 4.472C128.578 4.6 128.525 4.70667 128.525 4.792C128.525 4.888 128.584 4.96267 128.701 5.016C128.818 5.06933 128.968 5.128 129.149 5.192C129.33 5.256 129.506 5.32533 129.677 5.4C129.858 5.47467 130.008 5.58133 130.125 5.72C130.253 5.85867 130.317 6.03467 130.317 6.248C130.317 6.45067 130.264 6.63733 130.157 6.808C130.05 6.97867 129.896 7.11733 129.693 7.224C129.49 7.33067 129.245 7.384 128.957 7.384C128.669 7.384 128.413 7.33067 128.189 7.224C127.965 7.10667 127.789 6.952 127.661 6.76C127.533 6.55733 127.469 6.32267 127.469 6.056C127.469 5.75733 127.544 5.45867 127.693 5.16C127.842 4.86133 128.077 4.584 128.397 4.328C128.728 4.06133 129.149 3.848 129.661 3.688C130.184 3.51733 130.808 3.432 131.533 3.432C132.322 3.432 133.016 3.544 133.613 3.768C134.21 3.992 134.674 4.31733 135.005 4.744C135.346 5.17067 135.517 5.69333 135.517 6.312C135.517 6.78133 135.432 7.192 135.261 7.544C135.09 7.896 134.84 8.18933 134.509 8.424C134.178 8.65867 133.773 8.84533 133.293 8.984C132.824 9.112 132.285 9.19733 131.677 9.24V9.32C132.253 9.352 132.781 9.42667 133.261 9.544C133.741 9.66133 134.157 9.83733 134.509 10.072C134.861 10.3067 135.133 10.6053 135.325 10.968C135.528 11.3307 135.629 11.768 135.629 12.28C135.629 12.696 135.554 13.064 135.405 13.384C135.256 13.704 135.048 13.9813 134.781 14.216C134.514 14.4507 134.205 14.6427 133.853 14.792C133.501 14.9413 133.122 15.0533 132.717 15.128C132.322 15.2027 131.912 15.24 131.485 15.24Z" fill="#E7D8C5"/>
<rect x="214.436" y="23.3406" width="19" height="19" rx="5" fill="#503047"/>
<path d="M219.755 35.4446V35.0766C220.193 34.8099 220.619 34.5166 221.035 34.1966C221.451 33.8659 221.798 33.4872 222.075 33.0606C222.257 32.7832 222.401 32.4792 222.507 32.1486C222.614 31.8179 222.667 31.4659 222.667 31.0926C222.667 30.6766 222.582 30.3246 222.411 30.0366C222.241 29.7486 222.006 29.4552 221.707 29.1566C221.409 28.9112 221.179 28.6819 221.019 28.4686C220.87 28.2552 220.795 28.0312 220.795 27.7966C220.795 27.6046 220.849 27.4339 220.955 27.2846C221.062 27.1246 221.206 26.9966 221.387 26.9006C221.569 26.8046 221.777 26.7566 222.011 26.7566C222.374 26.7566 222.689 26.8952 222.955 27.1726C223.222 27.4392 223.425 27.8179 223.563 28.3086C223.713 28.7886 223.787 29.3486 223.787 29.9886C223.787 30.5859 223.707 31.1299 223.547 31.6206C223.387 32.1112 223.169 32.5592 222.891 32.9646C222.646 33.3166 222.363 33.6312 222.043 33.9086C221.734 34.1859 221.409 34.4259 221.067 34.6286C220.737 34.8312 220.401 35.0019 220.059 35.1406V35.2846L225.067 35.1726V29.9566L226.795 26.8686H226.907V35.1246L228.123 35.0926V35.4446H226.907V38.0206L227.899 38.1806V38.3406H224.091V38.1806L225.067 38.0206V35.4446H219.755Z" fill="#E7D8C5"/>
<rect x="205.113" y="81.2256" width="19" height="19" rx="5" fill="#503047"/>
<path d="M214.602 96.4656C213.92 96.4656 213.306 96.3749 212.762 96.1936C212.229 96.0123 211.776 95.7776 211.402 95.4896C211.029 95.1909 210.746 94.8709 210.554 94.5296C210.362 94.1883 210.266 93.8523 210.266 93.5216C210.266 93.3189 210.304 93.1429 210.378 92.9936C210.464 92.8336 210.57 92.7056 210.698 92.6096C210.837 92.5029 210.992 92.4229 211.162 92.3696C211.344 92.3163 211.525 92.2896 211.706 92.2896C211.888 92.2896 212.058 92.3163 212.218 92.3696C212.378 92.4123 212.517 92.4816 212.634 92.5776C212.762 92.6736 212.858 92.7909 212.922 92.9296C212.997 93.0576 213.034 93.2123 213.034 93.3936C213.034 93.5856 212.986 93.7509 212.89 93.8896C212.794 94.0176 212.677 94.1349 212.538 94.2416C212.4 94.3376 212.261 94.4283 212.122 94.5136C211.984 94.5883 211.861 94.6683 211.754 94.7536C211.658 94.8389 211.61 94.9296 211.61 95.0256C211.61 95.1109 211.669 95.2123 211.786 95.3296C211.904 95.4469 212.064 95.5696 212.266 95.6976C212.48 95.8149 212.714 95.9163 212.97 96.0016C213.237 96.0763 213.514 96.1136 213.802 96.1136C214.421 96.1136 214.97 96.0069 215.45 95.7936C215.941 95.5803 216.32 95.2496 216.586 94.8016C216.864 94.3429 217.002 93.7616 217.002 93.0576C217.002 92.4816 216.869 91.9909 216.602 91.5856C216.336 91.1696 215.968 90.8496 215.498 90.6256C215.04 90.4016 214.506 90.2896 213.898 90.2896C213.536 90.2896 213.189 90.3376 212.858 90.4336C212.538 90.5296 212.234 90.6683 211.946 90.8496C211.669 91.0203 211.418 91.2229 211.194 91.4576H210.89C210.944 91.1056 210.986 90.7643 211.018 90.4336C211.05 90.0923 211.072 89.7456 211.082 89.3936C211.093 89.0416 211.098 88.6736 211.098 88.2896C211.098 87.5216 211.066 86.9136 211.002 86.4656C210.938 86.0069 210.906 85.6656 210.906 85.4416C210.906 85.2603 210.944 85.1109 211.018 84.9936C211.104 84.8763 211.21 84.7909 211.338 84.7376C211.477 84.6843 211.616 84.6576 211.754 84.6576C211.989 84.6576 212.17 84.6949 212.298 84.7696C212.426 84.8336 212.49 84.9403 212.49 85.0896C212.49 85.2176 212.448 85.3296 212.362 85.4256C212.277 85.5109 212.17 85.5909 212.042 85.6656C211.925 85.7403 211.802 85.8096 211.674 85.8736C211.557 85.9269 211.456 85.9856 211.37 86.0496C211.285 86.1029 211.242 86.1563 211.242 86.2096C211.242 86.2629 211.28 86.2896 211.354 86.2896C211.44 86.2896 211.578 86.2523 211.77 86.1776C211.962 86.0923 212.213 85.9749 212.522 85.8256C212.832 85.6763 213.2 85.5056 213.626 85.3136C213.946 85.1643 214.25 85.0416 214.538 84.9456C214.826 84.8496 215.098 84.7803 215.354 84.7376C215.621 84.6843 215.882 84.6576 216.138 84.6576C216.544 84.6576 216.912 84.7376 217.242 84.8976C217.584 85.0469 217.877 85.2816 218.122 85.6016C218.378 85.9216 218.57 86.3269 218.698 86.8176C218.837 87.2976 218.906 87.8736 218.906 88.5456H218.746C218.746 87.7029 218.613 87.0683 218.346 86.6416C218.08 86.2149 217.69 86.0016 217.178 86.0016C216.997 86.0016 216.805 86.0389 216.602 86.1136C216.4 86.1776 216.176 86.2629 215.93 86.3696C215.685 86.4656 215.408 86.5669 215.098 86.6736C214.8 86.7696 214.464 86.8496 214.09 86.9136C213.877 86.9349 213.653 86.9456 213.418 86.9456C213.194 86.9456 212.965 86.9296 212.73 86.8976C212.496 86.8656 212.261 86.8176 212.026 86.7536C211.802 86.6896 211.589 86.6043 211.386 86.4976L211.242 86.5776C211.253 86.7803 211.264 87.0363 211.274 87.3456C211.296 87.6443 211.306 87.9589 211.306 88.2896C211.306 88.6416 211.296 88.9776 211.274 89.2976C211.264 89.6176 211.248 89.9163 211.226 90.1936C211.216 90.4603 211.194 90.6789 211.162 90.8496L211.354 90.9776C211.738 90.7109 212.128 90.4923 212.522 90.3216C212.928 90.1403 213.338 90.0069 213.754 89.9216C214.17 89.8363 214.586 89.7936 215.002 89.7936C215.578 89.7936 216.106 89.8629 216.586 90.0016C217.066 90.1403 217.482 90.3483 217.834 90.6256C218.186 90.8923 218.453 91.2229 218.634 91.6176C218.826 92.0123 218.922 92.4656 218.922 92.9776C218.922 93.4683 218.837 93.9269 218.666 94.3536C218.496 94.7803 218.234 95.1536 217.882 95.4736C217.53 95.7829 217.082 96.0283 216.538 96.2096C215.994 96.3803 215.349 96.4656 214.602 96.4656Z" fill="#E7D8C5"/>
<rect x="229.353" y="128.841" width="19" height="19" rx="5" fill="#503047"/>
<path d="M239.343 132.273C239.855 132.273 240.313 132.347 240.719 132.497C241.135 132.646 241.487 132.849 241.775 133.105C242.063 133.35 242.281 133.622 242.431 133.921C242.591 134.209 242.671 134.497 242.671 134.785C242.671 135.073 242.601 135.323 242.463 135.537C242.335 135.739 242.153 135.899 241.919 136.017C241.695 136.134 241.439 136.193 241.151 136.193C240.863 136.193 240.617 136.145 240.415 136.049C240.223 135.942 240.073 135.809 239.967 135.649C239.871 135.489 239.823 135.318 239.823 135.137C239.823 134.966 239.86 134.817 239.935 134.689C240.02 134.561 240.127 134.449 240.255 134.353C240.393 134.246 240.537 134.155 240.687 134.081C240.836 133.995 240.975 133.921 241.103 133.857C241.231 133.782 241.337 133.713 241.423 133.649C241.508 133.585 241.551 133.521 241.551 133.457C241.551 133.361 241.508 133.265 241.423 133.169C241.337 133.062 241.215 132.961 241.055 132.865C240.895 132.769 240.703 132.689 240.479 132.625C240.265 132.561 240.025 132.529 239.759 132.529C238.767 132.529 238.004 132.833 237.471 133.441C236.937 134.038 236.633 134.907 236.559 136.049C236.537 136.241 236.521 136.47 236.511 136.737C236.511 137.003 236.511 137.286 236.511 137.585C236.511 137.873 236.511 138.155 236.511 138.433C236.511 138.71 236.511 138.961 236.511 139.185L236.623 139.233C236.719 138.966 236.863 138.694 237.055 138.417C237.247 138.139 237.481 137.883 237.759 137.649C238.036 137.403 238.351 137.211 238.703 137.073C239.065 136.923 239.46 136.849 239.887 136.849C240.495 136.849 241.023 136.982 241.471 137.249C241.929 137.515 242.287 137.899 242.543 138.401C242.799 138.902 242.927 139.499 242.927 140.193C242.927 140.801 242.831 141.35 242.639 141.841C242.457 142.321 242.185 142.731 241.823 143.073C241.471 143.403 241.039 143.654 240.527 143.825C240.025 143.995 239.455 144.081 238.815 144.081C238.089 144.081 237.465 143.979 236.943 143.777C236.42 143.563 235.993 143.233 235.663 142.785C235.332 142.337 235.087 141.761 234.927 141.057C234.777 140.342 234.703 139.483 234.703 138.481C234.703 137.137 234.857 136.006 235.167 135.089C235.487 134.161 235.988 133.462 236.671 132.993C237.353 132.513 238.244 132.273 239.343 132.273ZM239.183 137.409C238.959 137.409 238.719 137.462 238.463 137.569C238.217 137.675 237.972 137.841 237.727 138.065C237.481 138.289 237.257 138.566 237.055 138.897C236.852 139.227 236.692 139.606 236.575 140.033C236.575 140.939 236.649 141.675 236.799 142.241C236.948 142.806 237.188 143.222 237.519 143.489C237.849 143.745 238.281 143.873 238.815 143.873C239.305 143.873 239.721 143.734 240.063 143.457C240.404 143.169 240.665 142.753 240.847 142.209C241.028 141.665 241.119 141.014 241.119 140.257C241.119 139.659 241.028 139.147 240.847 138.721C240.676 138.294 240.441 137.969 240.143 137.745C239.855 137.521 239.535 137.409 239.183 137.409Z" fill="#E7D8C5"/>
<rect x="190.196" y="163.385" width="19" height="19" rx="5" fill="#503047"/>
<path d="M199.781 178.625C199.13 178.625 198.56 178.513 198.069 178.289C197.578 178.065 197.194 177.756 196.917 177.361C196.64 176.956 196.501 176.486 196.501 175.953C196.501 175.452 196.624 174.993 196.869 174.577C197.125 174.15 197.52 173.74 198.053 173.345C198.597 172.94 199.301 172.518 200.165 172.081C200.933 171.718 201.573 171.366 202.085 171.025C202.597 170.684 203.002 170.337 203.301 169.985C203.6 169.622 203.808 169.233 203.925 168.817L203.717 168.721C203.568 168.828 203.36 168.918 203.093 168.993C202.826 169.068 202.528 169.116 202.197 169.137C201.866 169.158 201.52 169.142 201.157 169.089C200.72 169.025 200.309 168.945 199.925 168.849C199.541 168.742 199.184 168.636 198.853 168.529C198.533 168.422 198.245 168.337 197.989 168.273C197.744 168.209 197.546 168.177 197.397 168.177C197.088 168.177 196.826 168.257 196.613 168.417C196.41 168.566 196.25 168.817 196.133 169.169C196.026 169.521 195.936 169.985 195.861 170.561L195.845 171.169H195.685V167.057H195.909V169.121C196.09 168.321 196.4 167.74 196.837 167.377C197.274 167.004 197.872 166.817 198.629 166.817C198.917 166.817 199.226 166.86 199.557 166.945C199.888 167.02 200.224 167.121 200.565 167.249C200.917 167.366 201.258 167.5 201.589 167.649C201.93 167.788 202.245 167.921 202.533 168.049C202.832 168.177 203.088 168.278 203.301 168.353C203.525 168.428 203.696 168.465 203.813 168.465C203.898 168.465 203.941 168.438 203.941 168.385C203.941 168.332 203.893 168.273 203.797 168.209C203.701 168.134 203.541 168.033 203.317 167.905C203.125 167.788 202.97 167.676 202.853 167.569C202.746 167.452 202.693 167.345 202.693 167.249C202.693 167.11 202.746 167.004 202.853 166.929C202.96 166.854 203.104 166.817 203.285 166.817C203.584 166.817 203.818 166.908 203.989 167.089C204.17 167.27 204.261 167.505 204.261 167.793C204.261 168.188 204.213 168.577 204.117 168.961C204.032 169.345 203.898 169.697 203.717 170.017C203.525 170.369 203.178 170.796 202.677 171.297C202.176 171.788 201.557 172.305 200.821 172.849C200.245 173.265 199.781 173.654 199.429 174.017C199.077 174.369 198.821 174.71 198.661 175.041C198.512 175.361 198.437 175.692 198.437 176.033C198.437 176.62 198.634 177.084 199.029 177.425C199.424 177.756 199.962 177.921 200.645 177.921C201.018 177.921 201.37 177.825 201.701 177.633C202.042 177.441 202.336 177.174 202.581 176.833C202.826 176.481 203.002 176.076 203.109 175.617L203.285 175.713C203.146 176.321 202.912 176.844 202.581 177.281C202.261 177.708 201.861 178.038 201.381 178.273C200.912 178.508 200.378 178.625 199.781 178.625Z" fill="#E7D8C5"/>
<rect x="140.782" y="143.779" width="19" height="19" rx="5" fill="#503047"/>
<path d="M150.344 159.019C149.682 159.019 149.101 158.944 148.6 158.795C148.109 158.645 147.698 158.437 147.368 158.171C147.048 157.893 146.802 157.573 146.632 157.211C146.472 156.848 146.392 156.448 146.392 156.011C146.392 155.691 146.445 155.387 146.552 155.099C146.669 154.8 146.84 154.528 147.064 154.283C147.288 154.037 147.565 153.819 147.896 153.627C148.226 153.435 148.616 153.269 149.064 153.131V152.843L149.48 153.099C149.245 153.259 149.032 153.424 148.84 153.595C148.658 153.755 148.493 153.92 148.344 154.091C148.205 154.261 148.088 154.443 147.992 154.635C147.906 154.816 147.837 155.013 147.784 155.227C147.741 155.429 147.72 155.643 147.72 155.867C147.72 156.464 147.821 156.987 148.024 157.435C148.237 157.872 148.546 158.213 148.952 158.459C149.357 158.693 149.848 158.811 150.424 158.811C150.925 158.811 151.357 158.72 151.72 158.539C152.082 158.347 152.365 158.069 152.568 157.707C152.77 157.344 152.872 156.901 152.872 156.379C152.872 155.973 152.776 155.611 152.584 155.291C152.392 154.971 152.077 154.656 151.64 154.347C151.202 154.037 150.6 153.707 149.832 153.355C149.341 153.141 148.909 152.923 148.536 152.699C148.162 152.464 147.842 152.219 147.576 151.963C147.32 151.696 147.122 151.403 146.984 151.083C146.856 150.763 146.792 150.405 146.792 150.011C146.792 149.648 146.872 149.301 147.032 148.971C147.192 148.629 147.426 148.331 147.736 148.075C148.045 147.808 148.429 147.6 148.888 147.451C149.346 147.291 149.874 147.211 150.472 147.211C150.802 147.211 151.128 147.243 151.448 147.307C151.778 147.371 152.088 147.467 152.376 147.595C152.664 147.723 152.92 147.883 153.144 148.075C153.368 148.256 153.544 148.469 153.672 148.715C153.8 148.96 153.864 149.232 153.864 149.531C153.864 149.808 153.81 150.064 153.704 150.299C153.608 150.533 153.469 150.741 153.288 150.923C153.106 151.104 152.898 151.275 152.664 151.435C152.429 151.584 152.184 151.717 151.928 151.835C151.672 151.941 151.41 152.037 151.144 152.123V152.395L150.456 152.187C150.754 152.101 151.037 151.968 151.304 151.787C151.57 151.605 151.81 151.392 152.024 151.147C152.237 150.891 152.402 150.624 152.52 150.347C152.648 150.059 152.712 149.776 152.712 149.499C152.712 149.104 152.621 148.752 152.44 148.443C152.269 148.133 152.013 147.888 151.672 147.707C151.33 147.515 150.914 147.419 150.424 147.419C149.965 147.419 149.554 147.499 149.192 147.659C148.829 147.808 148.546 148.027 148.344 148.315C148.141 148.603 148.04 148.955 148.04 149.371C148.04 149.744 148.141 150.096 148.344 150.427C148.557 150.747 148.872 151.045 149.288 151.323C149.714 151.6 150.248 151.883 150.888 152.171C151.304 152.363 151.682 152.555 152.024 152.747C152.365 152.939 152.664 153.141 152.92 153.355C153.186 153.557 153.41 153.776 153.592 154.011C153.773 154.245 153.912 154.501 154.008 154.779C154.114 155.056 154.168 155.371 154.168 155.723C154.168 156.256 154.072 156.725 153.88 157.131C153.698 157.536 153.437 157.883 153.096 158.171C152.754 158.448 152.349 158.656 151.88 158.795C151.421 158.944 150.909 159.019 150.344 159.019Z" fill="#E7D8C5"/>
<rect x="82.0452" y="192.327" width="19" height="19" rx="5" fill="#503047"/>
<path d="M90.9787 207.567C90.4667 207.567 90.0027 207.493 89.5867 207.343C89.1707 207.194 88.8187 206.997 88.5307 206.751C88.2427 206.495 88.024 206.218 87.8747 205.919C87.7253 205.621 87.6507 205.333 87.6507 205.055C87.6507 204.757 87.7147 204.506 87.8427 204.303C87.9707 204.101 88.152 203.941 88.3867 203.823C88.6213 203.706 88.8827 203.647 89.1707 203.647C89.448 203.647 89.6827 203.701 89.8747 203.807C90.0773 203.903 90.232 204.031 90.3387 204.191C90.4453 204.351 90.4987 204.522 90.4987 204.703C90.4987 204.874 90.456 205.023 90.3707 205.151C90.2853 205.279 90.1787 205.397 90.0507 205.503C89.9227 205.599 89.784 205.69 89.6347 205.775C89.4853 205.85 89.3467 205.925 89.2187 205.999C89.0907 206.063 88.984 206.127 88.8987 206.191C88.8133 206.255 88.7707 206.319 88.7707 206.383C88.7707 206.469 88.8133 206.565 88.8987 206.671C88.984 206.778 89.1013 206.879 89.2507 206.975C89.4107 207.071 89.5973 207.151 89.8107 207.215C90.0347 207.279 90.2853 207.311 90.5627 207.311C91.5547 207.311 92.3173 207.013 92.8507 206.415C93.384 205.807 93.688 204.933 93.7627 203.791C93.7733 203.599 93.7787 203.37 93.7787 203.103C93.7893 202.837 93.7947 202.559 93.7947 202.271C93.8053 201.973 93.8107 201.685 93.8107 201.407C93.8107 201.119 93.8107 200.869 93.8107 200.655L93.6827 200.607C93.5973 200.874 93.4533 201.146 93.2507 201.423C93.0587 201.701 92.824 201.962 92.5467 202.207C92.2693 202.442 91.9547 202.634 91.6027 202.783C91.2507 202.922 90.8613 202.991 90.4347 202.991C89.8267 202.991 89.2933 202.858 88.8347 202.591C88.3867 202.325 88.0347 201.941 87.7787 201.439C87.5227 200.938 87.3947 200.341 87.3947 199.647C87.3947 199.039 87.4853 198.495 87.6667 198.015C87.8587 197.525 88.1307 197.114 88.4827 196.783C88.8347 196.442 89.2667 196.186 89.7787 196.015C90.2907 195.845 90.8667 195.759 91.5067 195.759C92.232 195.759 92.856 195.866 93.3787 196.079C93.9013 196.282 94.328 196.607 94.6587 197.055C94.9893 197.503 95.2293 198.085 95.3787 198.799C95.5387 199.503 95.6187 200.357 95.6187 201.359C95.6187 202.703 95.4587 203.839 95.1387 204.767C94.8293 205.685 94.3333 206.383 93.6507 206.863C92.968 207.333 92.0773 207.567 90.9787 207.567ZM91.1387 202.431C91.3627 202.431 91.5973 202.378 91.8427 202.271C92.0987 202.165 92.344 201.999 92.5787 201.775C92.824 201.551 93.048 201.274 93.2507 200.943C93.4533 200.613 93.6187 200.234 93.7467 199.807C93.7467 198.901 93.672 198.165 93.5227 197.599C93.3733 197.034 93.1333 196.623 92.8027 196.367C92.472 196.101 92.04 195.967 91.5067 195.967C91.016 195.967 90.6 196.111 90.2587 196.399C89.9173 196.677 89.656 197.087 89.4747 197.631C89.2933 198.165 89.2027 198.815 89.2027 199.583C89.2027 200.181 89.288 200.693 89.4587 201.119C89.6293 201.546 89.8587 201.871 90.1467 202.095C90.4453 202.319 90.776 202.431 91.1387 202.431Z" fill="#E7D8C5"/>
<rect x="91.3684" y="138.177" width="19" height="19" rx="5" fill="#503047"/>
<path d="M93.731 153.177V153.017L94.691 152.809V142.825H93.475V142.649L96.371 141.593H96.531V152.809L97.427 153.017V153.177H93.731ZM104.09 153.417C103.397 153.417 102.767 153.294 102.202 153.049C101.637 152.793 101.157 152.414 100.762 151.913C100.367 151.401 100.063 150.766 99.85 150.009C99.6474 149.252 99.546 148.372 99.546 147.369C99.546 146.42 99.6527 145.588 99.866 144.873C100.079 144.148 100.383 143.545 100.778 143.065C101.173 142.574 101.653 142.212 102.218 141.977C102.794 141.732 103.434 141.609 104.138 141.609C104.874 141.609 105.519 141.732 106.074 141.977C106.629 142.212 107.098 142.574 107.482 143.065C107.866 143.545 108.154 144.148 108.346 144.873C108.549 145.588 108.65 146.42 108.65 147.369C108.65 148.372 108.549 149.252 108.346 150.009C108.154 150.766 107.866 151.401 107.482 151.913C107.098 152.414 106.623 152.793 106.058 153.049C105.493 153.294 104.837 153.417 104.09 153.417ZM104.106 153.177C104.735 153.177 105.242 152.98 105.626 152.585C106.021 152.19 106.309 151.63 106.49 150.905C106.671 150.169 106.767 149.31 106.778 148.329V146.489C106.778 145.508 106.682 144.676 106.49 143.993C106.298 143.3 106.005 142.772 105.61 142.409C105.226 142.036 104.735 141.849 104.138 141.849C103.53 141.849 103.023 142.036 102.618 142.409C102.223 142.772 101.925 143.3 101.722 143.993C101.53 144.676 101.434 145.502 101.434 146.473V148.217C101.434 149.241 101.53 150.126 101.722 150.873C101.914 151.609 102.202 152.18 102.586 152.585C102.981 152.98 103.487 153.177 104.106 153.177Z" fill="#E7D8C5"/>
</svg>
