<svg width="12" height="20" viewBox="0 0 12 20" fill="none" xmlns="http://www.w3.org/2000/svg">
<path d="M11.707 17.9861C11.7999 18.0685 11.8736 18.1662 11.9238 18.2738C11.9741 18.3814 12 18.4967 12 18.6132C12 18.7296 11.9741 18.845 11.9238 18.9526C11.8736 19.0601 11.7999 19.1579 11.707 19.2403C11.6141 19.3226 11.5038 19.3879 11.3824 19.4325C11.261 19.4771 11.1309 19.5 10.9996 19.5C10.8682 19.5 10.7381 19.4771 10.6167 19.4325C10.4953 19.3879 10.385 19.3226 10.2921 19.2403L0.293253 10.3771C0.200287 10.2948 0.126537 10.197 0.0762187 10.0894C0.0259 9.98181 0 9.86647 0 9.75C0 9.63352 0.0259 9.51819 0.0762187 9.41059C0.126537 9.30299 0.200287 9.20524 0.293253 9.12293L10.2921 0.259741C10.4798 0.0934316 10.7342 -4.6363e-09 10.9996 0C11.2649 4.6363e-09 11.5194 0.0934316 11.707 0.259741C11.8946 0.42605 12 0.651614 12 0.886812C12 1.12201 11.8946 1.34757 11.707 1.51388L2.41427 9.75L11.707 17.9861Z" fill="#503047"/>
</svg>
