<svg width="50" height="50" viewBox="0 0 50 50" fill="none" xmlns="http://www.w3.org/2000/svg">
<path d="M40.625 10.9375H35.2109L32.5488 6.94531C32.4062 6.73155 32.2131 6.55626 31.9865 6.43497C31.7599 6.31369 31.507 6.25015 31.25 6.25H18.75C18.493 6.25015 18.2401 6.31369 18.0135 6.43497C17.7869 6.55626 17.5938 6.73155 17.4512 6.94531L14.7871 10.9375H9.375C8.1318 10.9375 6.93951 11.4314 6.06044 12.3104C5.18136 13.1895 4.6875 14.3818 4.6875 15.625V37.5C4.6875 38.7432 5.18136 39.9355 6.06044 40.8146C6.93951 41.6936 8.1318 42.1875 9.375 42.1875H40.625C41.8682 42.1875 43.0605 41.6936 43.9396 40.8146C44.8186 39.9355 45.3125 38.7432 45.3125 37.5V15.625C45.3125 14.3818 44.8186 13.1895 43.9396 12.3104C43.0605 11.4314 41.8682 10.9375 40.625 10.9375ZM42.1875 37.5C42.1875 37.9144 42.0229 38.3118 41.7299 38.6049C41.4368 38.8979 41.0394 39.0625 40.625 39.0625H9.375C8.9606 39.0625 8.56317 38.8979 8.27015 38.6049C7.97712 38.3118 7.8125 37.9144 7.8125 37.5V15.625C7.8125 15.2106 7.97712 14.8132 8.27015 14.5201C8.56317 14.2271 8.9606 14.0625 9.375 14.0625H15.625C15.8823 14.0627 16.1357 13.9993 16.3626 13.878C16.5895 13.7567 16.783 13.5812 16.9258 13.3672L19.5859 9.375H30.4121L33.0742 13.3672C33.217 13.5812 33.4105 13.7567 33.6374 13.878C33.8643 13.9993 34.1177 14.0627 34.375 14.0625H40.625C41.0394 14.0625 41.4368 14.2271 41.7299 14.5201C42.0229 14.8132 42.1875 15.2106 42.1875 15.625V37.5ZM34.375 18.75V23.4375C34.375 23.8519 34.2104 24.2493 33.9174 24.5424C33.6243 24.8354 33.2269 25 32.8125 25H28.125C27.7106 25 27.3132 24.8354 27.0201 24.5424C26.7271 24.2493 26.5625 23.8519 26.5625 23.4375C26.5625 23.0231 26.7271 22.6257 27.0201 22.3326C27.3132 22.0396 27.7106 21.875 28.125 21.875H29.1309C28.0516 20.9294 26.6808 20.3824 25.247 20.3252C23.8132 20.268 22.4032 20.704 21.252 21.5605C20.9207 21.8097 20.504 21.9171 20.0936 21.859C19.6832 21.801 19.3126 21.5822 19.0635 21.251C18.8143 20.9197 18.707 20.503 18.765 20.0926C18.8231 19.6822 19.0418 19.3117 19.373 19.0625C21.1099 17.7694 23.2395 17.1145 25.4028 17.208C27.5662 17.3016 29.6312 18.1379 31.25 19.5762V18.75C31.25 18.3356 31.4146 17.9382 31.7076 17.6451C32.0007 17.3521 32.3981 17.1875 32.8125 17.1875C33.2269 17.1875 33.6243 17.3521 33.9174 17.6451C34.2104 17.9382 34.375 18.3356 34.375 18.75ZM30.9355 30.3125C31.1846 30.6435 31.292 31.0599 31.2341 31.4701C31.1763 31.8803 30.9579 32.2508 30.627 32.5C28.8901 33.7931 26.7605 34.448 24.5972 34.3545C22.4338 34.2609 20.3688 33.4246 18.75 31.9863V32.8125C18.75 33.2269 18.5854 33.6243 18.2924 33.9174C17.9993 34.2104 17.6019 34.375 17.1875 34.375C16.7731 34.375 16.3757 34.2104 16.0826 33.9174C15.7896 33.6243 15.625 33.2269 15.625 32.8125V28.125C15.625 27.7106 15.7896 27.3132 16.0826 27.0201C16.3757 26.7271 16.7731 26.5625 17.1875 26.5625H21.875C22.2894 26.5625 22.6868 26.7271 22.9799 27.0201C23.2729 27.3132 23.4375 27.7106 23.4375 28.125C23.4375 28.5394 23.2729 28.9368 22.9799 29.2299C22.6868 29.5229 22.2894 29.6875 21.875 29.6875H20.8691C21.9484 30.6331 23.3192 31.1801 24.753 31.2373C26.1868 31.2945 27.5968 30.8585 28.748 30.002C29.0793 29.7531 29.4959 29.646 29.9061 29.7043C30.3163 29.7625 30.6866 29.9813 30.9355 30.3125Z" fill="#E7D8C5"/>
</svg>
